<svg width="32" height="32" viewBox="0 0 32 32" fill="none" xmlns="http://www.w3.org/2000/svg">
<path d="M20.3333 8.00033C20.3333 10.3936 18.3932 12.3337 16 12.3337C13.6068 12.3337 11.6667 10.3936 11.6667 8.00033C11.6667 5.60709 13.6068 3.66699 16 3.66699C18.3932 3.66699 20.3333 5.60709 20.3333 8.00033Z" stroke="#1B1B1B" stroke-width="1.5"/>
<path d="M24.3333 22.6667C24.3333 24.1008 23.5212 25.4936 22.0184 26.5669C20.5176 27.6391 18.3929 28.3333 16 28.3333C13.6071 28.3333 11.4824 27.6391 9.98156 26.5669C8.4788 25.4936 7.66666 24.1008 7.66666 22.6667C7.66666 21.2325 8.4788 19.8397 9.98156 18.7664C11.4824 17.6943 13.6071 17 16 17C18.3929 17 20.5176 17.6943 22.0184 18.7664C23.5212 19.8397 24.3333 21.2325 24.3333 22.6667Z" stroke="#1B1B1B" stroke-width="1.5"/>
</svg>
