<svg width="32" height="32" viewBox="0 0 32 32" fill="none" xmlns="http://www.w3.org/2000/svg">
<path fill-rule="evenodd" clip-rule="evenodd" d="M10.6667 7.66895C7.76663 7.68509 6.19608 7.81369 5.17157 8.8382C4 10.0098 4 11.8954 4 15.6667V21.3333C4 25.1045 4 26.9901 5.17157 28.1617C6.34315 29.3333 8.22876 29.3333 12 29.3333H13.3333C17.1045 29.3333 18.9901 29.3333 20.1617 28.1617C20.97 27.3536 21.2207 26.2056 21.2984 24.3333H19.2968C19.2777 24.7595 19.2488 25.1284 19.2047 25.4559C19.0881 26.3233 18.8997 26.5952 18.7476 26.7475C18.5953 26.8997 18.3235 27.088 17.4559 27.2047C16.5309 27.3291 15.2755 27.3333 13.3333 27.3333H12C10.0578 27.3333 8.80243 27.3291 7.87741 27.2047C7.00993 27.088 6.73804 26.8997 6.58579 26.7475C6.43353 26.5952 6.24524 26.3233 6.12861 25.4559C6.00425 24.5309 6 23.2755 6 21.3333V15.6667C6 13.7245 6.00425 12.4691 6.12861 11.544C6.24524 10.6766 6.43353 10.4047 6.58579 10.2524C6.73804 10.1002 7.00993 9.91186 7.87741 9.79524C8.57119 9.70196 9.45083 9.67625 10.6667 9.66924V7.66895Z" fill="#1B1B1B"/>
<mask id="mask0_262_11" style="mask-type:alpha" maskUnits="userSpaceOnUse" x="10" y="2" width="18" height="23">
<path fill-rule="evenodd" clip-rule="evenodd" d="M23.0893 4.22909C22.0892 3.2289 20.7327 2.66699 19.3181 2.66699H14.6667C12.4575 2.66699 10.6667 4.45786 10.6667 6.66699V20.3337C10.6667 22.5429 12.4575 24.3337 14.6667 24.3337H24C26.2092 24.3337 28 22.5429 28 20.3337V11.3489C28 9.93438 27.4381 8.57782 26.4379 7.57763L23.0893 4.22909Z" fill="white"/>
</mask>
<g mask="url(#mask0_262_11)">
<path d="M23.0893 4.22909L21.6752 5.6433L23.0893 4.22909ZM14.6667 4.66699H19.3181V0.666992H14.6667V4.66699ZM12.6667 6.66699C12.6667 5.56242 13.5621 4.66699 14.6667 4.66699V0.666992C11.353 0.666992 8.66666 3.35329 8.66666 6.66699H12.6667ZM12.6667 20.3337V6.66699H8.66666V20.3337H12.6667ZM14.6667 22.3337C13.5621 22.3337 12.6667 21.4382 12.6667 20.3337H8.66666C8.66666 23.6474 11.353 26.3337 14.6667 26.3337V22.3337ZM24 22.3337H14.6667V26.3337H24V22.3337ZM26 20.3337C26 21.4382 25.1045 22.3337 24 22.3337V26.3337C27.3137 26.3337 30 23.6474 30 20.3337H26ZM26 11.3489V20.3337H30V11.3489H26ZM27.8521 6.16342L24.5036 2.81487L21.6752 5.6433L25.0237 8.99185L27.8521 6.16342ZM30 11.3489C30 9.40395 29.2273 7.53869 27.8521 6.16342L25.0237 8.99185C25.6488 9.61697 26 10.4648 26 11.3489H30ZM19.3181 4.66699C20.2021 4.66699 21.05 5.01818 21.6752 5.6433L24.5036 2.81487C23.1283 1.43961 21.2631 0.666992 19.3181 0.666992V4.66699Z" fill="#1B1B1B"/>
</g>
</svg>
