<svg xmlns="http://www.w3.org/2000/svg" viewBox="0 0 1200.19 445.6"><defs><style>.cls-1{fill:#2544a1;}.cls-2{fill:#ffd500;fill-rule:evenodd;}</style></defs><g id="Layer_2" data-name="Layer 2"><g id="Layer_1-2" data-name="Layer 1"><path class="cls-1" d="M86.66,5.1,0,260.09H63.72L76.47,220h94.67l12.74,40.07h63.73L160.94,5.1Zm7.28,160.28L123.8,71.76l29.86,93.62ZM466.82,92.53A87.21,87.21,0,0,0,379.43,5.1h-102v255h58.26V176.31H363.4l48.07,83.78H474.1l-54.26-93.62C447.88,152.27,466.82,123.85,466.82,92.53Zm-87.39,32.78h-43.7V59.74h43.7c16,0,29.13,14.21,29.13,32.79S395.45,125.31,379.43,125.31Zm293.85-75V5.1H502.14V61.2h95.77L500.32,214.92v45.17H675.1V204H575.7ZM826.59,0C753.4,0,694,57.56,694,132.6S753.4,265.19,826.59,265.19,959.13,207.64,959.13,132.6,899.77,0,826.59,0Zm0,208.36c-41.52,0-74.29-30.23-74.29-75.76s32.77-75.77,74.29-75.77,74.28,30.23,74.28,75.77S868.1,208.36,826.59,208.36ZM1141.93,5.1V143.52L1043.61,5.1H999.92v255h58.26V121.67l98.31,138.42h43.7V5.1Z"/><path class="cls-2" d="M675.59,296.35v60s-333,232.5-670-53C5.59,303.35,277.09,525.35,675.59,296.35Z"/></g></g></svg>