<svg width="32" height="32" viewBox="0 0 32 32" fill="none" xmlns="http://www.w3.org/2000/svg">
<path d="M25.3333 13H24C22.3431 13 21 14.3431 21 16C21 17.6569 22.3431 19 24 19H25.3333C26.9902 19 28.3333 17.6569 28.3333 16C28.3333 14.3431 26.9902 13 25.3333 13Z" stroke="#1B1B1B" stroke-width="1.5"/>
<path d="M13.3333 7.33301H17.3333C19.904 7.33301 21.6308 7.33726 22.9189 7.51043C24.1495 7.67587 24.6761 7.96181 25.0237 8.30931C25.3712 8.65683 25.6571 9.18349 25.8225 10.414C25.9276 11.1954 25.9705 12.1383 25.988 13.333H27.9884C27.9405 10.0269 27.6953 8.15255 26.4379 6.8951C24.8759 5.33301 22.3616 5.33301 17.3333 5.33301H13.3333C8.305 5.33301 5.79086 5.33301 4.22875 6.8951C2.66666 8.45721 2.66666 10.9714 2.66666 15.9997C2.66666 21.0279 2.66666 23.5422 4.22875 25.1042C5.79086 26.6663 8.305 26.6663 13.3333 26.6663H17.3333C22.3616 26.6663 24.8759 26.6663 26.4379 25.1042C27.6953 23.8467 27.9405 21.9725 27.9884 18.6663H25.988C25.9705 19.861 25.9276 20.8039 25.8225 21.5853C25.6571 22.8158 25.3712 23.3425 25.0237 23.6901C24.6761 24.0375 24.1495 24.3234 22.9189 24.4889C21.6308 24.6621 19.904 24.6663 17.3333 24.6663H13.3333C10.7626 24.6663 9.0358 24.6621 7.7477 24.4889C6.51714 24.3234 5.99048 24.0375 5.64296 23.6901C5.29546 23.3425 5.00952 22.8158 4.84408 21.5853C4.67091 20.2971 4.66666 18.5703 4.66666 15.9997C4.66666 13.429 4.67091 11.7022 4.84408 10.414C5.00952 9.18349 5.29546 8.65683 5.64296 8.30931C5.99048 7.96181 6.51714 7.67587 7.7477 7.51043C9.0358 7.33726 10.7626 7.33301 13.3333 7.33301Z" fill="#1B1B1B"/>
<path d="M9 12.333H16.3333" stroke="#1B1B1B" stroke-width="1.5" stroke-linecap="round"/>
</svg>
