<svg xmlns="http://www.w3.org/2000/svg" width="16.688" height="16.656" viewBox="0 0 16.688 16.656">
  <defs>
    <style>
      .cls-1 {
        fill: #2544a1;
        fill-rule: evenodd;
      }
    </style>
  </defs>
  <path id="account" class="cls-1" d="M346.467,57.425c-0.046.029-.081,0.052-0.116,0.073a8.291,8.291,0,0,0-4.1,7.171,0.755,0.755,0,0,0,1.038.712,0.706,0.706,0,0,0,.466-0.618c0.039-.389.035-0.784,0.1-1.167a6.674,6.674,0,0,1,3.74-5.025,0.25,0.25,0,0,1,.2.006,5.244,5.244,0,0,0,5.58,0,0.253,0.253,0,0,1,.205-0.013,6.625,6.625,0,0,1,3.631,4.525,14,14,0,0,1,.207,1.67,0.76,0.76,0,0,0,.775.683,0.75,0.75,0,0,0,.729-0.747c0-.237-0.009-0.474-0.029-0.71a8.11,8.11,0,0,0-2.69-5.455c-0.455-.416-0.98-0.756-1.481-1.137a5.232,5.232,0,0,0,1.144-3.81,5.158,5.158,0,0,0-1.862-3.575A5.313,5.313,0,0,0,346.467,57.425Zm0,0a5.313,5.313,0,0,1,7.543-7.419,5.158,5.158,0,0,1,1.862,3.575,5.232,5.232,0,0,1-1.144,3.81c0.5,0.381,1.026.721,1.481,1.137a8.11,8.11,0,0,1,2.69,5.455c0.02,0.236.031,0.473,0.029,0.71a0.75,0.75,0,0,1-.729.747,0.76,0.76,0,0,1-.775-0.683,14,14,0,0,0-.207-1.67,6.625,6.625,0,0,0-3.631-4.525,0.253,0.253,0,0,0-.205.013,5.244,5.244,0,0,1-5.58,0,0.25,0.25,0,0,0-.2-0.006,6.674,6.674,0,0,0-3.74,5.025c-0.068.383-.064,0.778-0.1,1.167a0.706,0.706,0,0,1-.466.618,0.755,0.755,0,0,1-1.038-.712,8.291,8.291,0,0,1,4.1-7.171C346.386,57.477,346.421,57.454,346.467,57.425Zm4.124,0.425A3.791,3.791,0,1,0,346.8,54.07,3.788,3.788,0,0,0,350.591,57.85Zm0,0a3.791,3.791,0,1,1,3.788-3.782A3.787,3.787,0,0,1,350.591,57.85Z" transform="translate(-342.25 -48.781)"/>
</svg>
