<svg width="48" height="24" viewBox="0 0 48 24" fill="none" xmlns="http://www.w3.org/2000/svg">
<path d="M12.62 20.81C12.28 20.93 11.72 20.93 11.38 20.81C8.48 19.82 2 15.69 2 8.69001C2 5.60001 4.49 3.10001 7.56 3.10001C9.38 3.10001 10.99 3.98001 12 5.34001C12.5138 4.64588 13.183 4.08173 13.954 3.69275C14.725 3.30377 15.5764 3.10077 16.44 3.10001C19.51 3.10001 22 5.60001 22 8.69001C22 15.69 15.52 19.82 12.62 20.81Z" stroke="#2543A0" stroke-width="1.5" stroke-linecap="round" stroke-linejoin="round"/>
<path d="M36.62 20.81C36.28 20.93 35.72 20.93 35.38 20.81C32.48 19.82 26 15.69 26 8.69001C26 5.60001 28.49 3.10001 31.56 3.10001C33.38 3.10001 34.99 3.98001 36 5.34001C36.5138 4.64588 37.183 4.08173 37.954 3.69275C38.725 3.30377 39.5764 3.10077 40.44 3.10001C43.51 3.10001 46 5.60001 46 8.69001C46 15.69 39.52 19.82 36.62 20.81Z" fill="#2543A0" stroke="#2543A0" stroke-width="1.5" stroke-linecap="round" stroke-linejoin="round"/>
</svg>
