<svg xmlns="http://www.w3.org/2000/svg" width="16.25" height="15.56" viewBox="0 0 16.25 15.56">
  <defs>
    <style>
      .cls-1 {
        fill: #ffd500;
        fill-rule: evenodd;
      }
    </style>
  </defs>
  <path class="cls-1" d="M160.5,1127.93a0.869,0.869,0,0,1,.567-0.65,4.862,4.862,0,0,1,.765-0.11c1.33-.12,2.661-0.24,3.991-0.35a0.216,0.216,0,0,0,.207-0.16c0.582-1.37,1.172-2.74,1.755-4.11a0.9,0.9,0,0,1,.593-0.57,0.847,0.847,0,0,1,1.044.52c0.4,0.92.792,1.85,1.188,2.78,0.2,0.46.4,0.93,0.594,1.39a0.184,0.184,0,0,0,.182.14l2.934,0.27q0.805,0.06,1.609.15a0.809,0.809,0,0,1,.751.58,0.845,0.845,0,0,1-.272.95c-1.123.98-2.246,1.97-3.373,2.95a0.264,0.264,0,0,0-.108.3c0.338,1.46.667,2.91,1,4.37a0.868,0.868,0,0,1-1.317.96c-1.281-.77-2.564-1.53-3.843-2.3a0.235,0.235,0,0,0-.3,0q-1.912,1.155-3.83,2.29a0.868,0.868,0,0,1-1.34-.93c0.331-1.46.66-2.91,1-4.36a0.3,0.3,0,0,0-.108-0.34c-1.121-.97-2.234-1.95-3.352-2.93a1.182,1.182,0,0,1-.335-0.52v-0.32Z" transform="translate(-160.5 -1121.94)"/>
</svg>
